<svg width="451" height="203" viewBox="0 0 451 203" fill="none" xmlns="http://www.w3.org/2000/svg">
<path d="M4.92188 148H17.1562V49.5625H4.92188V148ZM24.1875 148.141H35.8594C46.8281 148.141 55.0312 144.156 60.4688 136.188C63.75 131.312 65.3906 125.828 65.3906 119.734C65.2969 110.734 61.9688 103.703 55.4062 98.6406C60.75 94.7031 63.8906 88.9844 64.8281 81.4844C65.0156 80.1719 65.1094 78.9062 65.1094 77.6875C65.1094 68.875 62.0625 61.7969 55.9688 56.4531C50.7188 51.8594 43.9219 49.5625 35.5781 49.5625H24.1875V60.5312H34.1719C42.1406 60.5312 47.7188 63.7656 50.9062 70.2344C52.2188 72.8594 52.875 75.5781 52.875 78.3906C52.875 86.5469 48.9844 91.3281 41.2031 92.7344C39.7969 93.0156 38.2969 93.1562 36.7031 93.1562H24.1875V104.125H36.7031C45.5156 104.125 50.8125 107.594 52.5938 114.531C52.9688 115.938 53.1562 117.438 53.1562 119.031C53.1562 125.594 50.4844 130.562 45.1406 133.938C41.4844 136.094 36.9844 137.172 31.6406 137.172H24.1875V148.141ZM75.0938 130.281C75.0938 135.438 77.625 139.797 82.6875 143.359C87 146.359 92.0625 147.859 97.875 147.859V136.891C89.7188 136.703 85.5938 133.609 85.5 127.609V123.812C85.5938 121.75 86.1562 120.25 87.1875 119.312C88.3125 118.281 93.3281 116.688 102.234 114.531C109.172 112.844 113.859 111.344 116.297 110.031V126.203C116.297 132.297 113.344 135.812 107.438 136.75C106.5 136.844 105.609 136.891 104.766 136.891V147.859C111.328 147.766 116.484 146.125 120.234 142.938C123.141 146.219 126.938 147.859 131.625 147.859V136.75C129.188 136.562 127.922 135.016 127.828 132.109V93.5781C127.828 87.5781 125.531 82.3281 120.938 77.8281C116.625 73.7031 111.234 71.6406 104.766 71.6406V82.4688C109.172 82.4688 112.453 84.25 114.609 87.8125C115.734 89.6875 116.297 91.75 116.297 94V96.6719C116.297 99.0156 110.719 101.734 99.5625 104.828C89.5312 107.641 83.7656 109.422 82.2656 110.172C77.4844 112.984 75.0938 117.438 75.0938 123.531V130.281ZM76.0781 90.7656L86.4844 94.7031C86.4844 89.4531 88.6406 85.7969 92.9531 83.7344C94.5469 82.9844 96.2344 82.6094 98.0156 82.6094V71.6406C91.5469 71.6406 86.0156 73.9844 81.4219 78.6719C77.8594 82.2344 76.0781 86.2656 76.0781 90.7656ZM139.078 128.031L150.188 125.922C150.188 130.141 152.391 133.469 156.797 135.906C158.953 136.938 161.016 137.5 162.984 137.594V148.703C153.891 148.703 147.094 145.422 142.594 138.859C140.25 135.391 139.078 131.781 139.078 128.031ZM139.781 93.4375C139.781 84.9062 143.672 78.5781 151.453 74.4531C155.203 72.4844 158.953 71.5 162.703 71.5V82.4688C158.391 82.4688 155.062 84.25 152.719 87.8125C151.5 89.5938 150.891 91.4688 150.891 93.4375C150.891 96.4375 153.234 98.875 157.922 100.75C161.484 102.25 168.375 104.219 178.594 106.656C184.969 107.969 189.516 111.109 192.234 116.078C193.641 118.703 194.344 121.656 194.344 124.938C194.344 133.938 190.734 140.594 183.516 144.906C179.297 147.438 174.469 148.703 169.031 148.703V137.594C173.344 137.594 176.953 136.094 179.859 133.094C181.922 130.938 182.953 128.406 182.953 125.5C182.953 121.75 179.25 118.75 171.844 116.5C169.969 115.938 166.969 115.141 162.844 114.109C158.438 113.078 155.25 112.234 153.281 111.578C146.156 108.766 141.844 104.5 140.344 98.7812C139.969 97.0938 139.781 95.3125 139.781 93.4375ZM168.891 82.6094V71.5C176.953 71.5 183.469 74.5 188.438 80.5C191.531 84.3438 193.078 88.375 193.078 92.5938L181.969 94.4219C181.969 89.2656 179.156 85.6562 173.531 83.5938C171.844 82.9375 170.297 82.6094 168.891 82.6094ZM203.625 61.5156C203.625 58.6094 204.984 56.5469 207.703 55.3281C208.641 54.9531 209.578 54.7656 210.516 54.7656C213.328 54.7656 215.391 56.0781 216.703 58.7031C217.078 59.6406 217.266 60.5781 217.266 61.5156C217.266 64.3281 215.953 66.3906 213.328 67.7031C212.391 68.0781 211.453 68.2656 210.516 68.2656C207.609 68.2656 205.5 66.9531 204.188 64.3281C203.812 63.3906 203.625 62.4531 203.625 61.5156ZM204.609 148V73.8906H216.422V148H204.609ZM229.219 127.188C229.219 132.156 231.141 136.703 234.984 140.828C239.484 145.609 245.438 148 252.844 148V136.75C247.781 136.75 244.172 134.875 242.016 131.125C241.266 129.812 240.891 128.5 240.891 127.188V93.0156C240.891 90.0156 242.438 87.4375 245.531 85.2812C247.688 83.875 250.125 83.1719 252.844 83.1719V71.9219C243.844 71.9219 237.094 75.4375 232.594 82.4688C230.344 85.9375 229.219 89.3594 229.219 92.7344V127.188ZM259.172 83.3125C263.766 83.3125 266.953 85.2812 268.734 89.2188C269.391 90.7188 269.766 92.2656 269.859 93.8594V97.2344L280.828 93.0156C280.828 86.1719 278.016 80.5938 272.391 76.2812C268.453 73.375 264.047 71.9219 259.172 71.9219V83.3125ZM259.172 148.141C265.828 148.234 271.641 145.703 276.609 140.547C280.547 136.328 282.516 131.734 282.516 126.766L271.547 122.688C271.547 122.781 271.547 122.875 271.547 122.969C271.547 123.062 271.547 123.25 271.547 123.531C271.547 123.812 271.547 124.047 271.547 124.234C271.547 124.422 271.547 124.656 271.547 124.938C271.547 125.125 271.547 125.312 271.547 125.5L271.406 125.781C270.938 131.031 268.312 134.453 263.531 136.047C262.125 136.516 260.672 136.75 259.172 136.75V148.141ZM292.359 112.281V101.031H336.797V112.281H292.359ZM348.047 120.859V49.5625H360.422V120.859C360.422 127.047 363.656 131.688 370.125 134.781C372.469 135.906 374.438 136.469 376.031 136.469V148.703C370.594 148.703 365.156 146.781 359.719 142.938C352.031 137.406 348.141 130.047 348.047 120.859ZM383.062 148.703V136.469C386.156 136.469 389.344 135.203 392.625 132.672C396.562 129.578 398.578 125.641 398.672 120.859V49.5625H410.906V120.859C410.906 131.359 406.219 139.281 396.844 144.625C392.062 147.344 387.469 148.703 383.062 148.703ZM422.016 148V49.5625H434.25V148H422.016Z" fill="#14274E"/>
<rect x="71" y="161" width="363" height="1" fill="#394867"/>
</svg>
