<?xml version="1.0" encoding="UTF-8" standalone="no"?>
<svg
   xmlns:dc="http://purl.org/dc/elements/1.1/"
   xmlns:cc="http://creativecommons.org/ns#"
   xmlns:rdf="http://www.w3.org/1999/02/22-rdf-syntax-ns#"
   xmlns:svg="http://www.w3.org/2000/svg"
   xmlns="http://www.w3.org/2000/svg"
   xmlns:sodipodi="http://sodipodi.sourceforge.net/DTD/sodipodi-0.dtd"
   xmlns:inkscape="http://www.inkscape.org/namespaces/inkscape"
   width="32"
   height="32"
   fill="none"
   version="1.1"
   id="svg1670"
   sodipodi:docname="instagram.svg"
   inkscape:version="1.0 (4035a4fb49, 2020-05-01)">
  <metadata
     id="metadata1676">
    <rdf:RDF>
      <cc:Work
         rdf:about="">
        <dc:format>image/svg+xml</dc:format>
        <dc:type
           rdf:resource="http://purl.org/dc/dcmitype/StillImage" />
        <dc:title></dc:title>
      </cc:Work>
    </rdf:RDF>
  </metadata>
  <defs
     id="defs1674" />
  <sodipodi:namedview
     inkscape:document-rotation="0"
     pagecolor="#ffffff"
     bordercolor="#666666"
     borderopacity="1"
     objecttolerance="10"
     gridtolerance="10"
     guidetolerance="10"
     inkscape:pageopacity="0"
     inkscape:pageshadow="2"
     inkscape:window-width="1920"
     inkscape:window-height="1012"
     id="namedview1672"
     showgrid="false"
     inkscape:zoom="24.99858"
     inkscape:cx="16"
     inkscape:cy="16"
     inkscape:window-x="0"
     inkscape:window-y="0"
     inkscape:window-maximized="1"
     inkscape:current-layer="svg1670" />
  <path
     d="M28.981 22.361a6.62 6.62 0 0 1-6.62 6.62H9.639a6.62 6.62 0 0 1-6.62-6.62V9.638a6.62 6.62 0 0 1 6.62-6.62h12.722a6.62 6.62 0 0 1 6.62 6.62v12.723zM32 9.638C32 4.315 27.684 0 22.36 0H9.64C4.315 0 0 4.315 0 9.638v12.723C0 27.684 4.316 32 9.64 32h12.72A9.64 9.64 0 0 0 32 22.36V9.638zm-15.946 11.63a5.068 5.068 0 0 1-5.062-5.062 5.068 5.068 0 0 1 5.062-5.062 5.067 5.067 0 0 1 5.062 5.062 5.067 5.067 0 0 1-5.062 5.062zm0-12.964c-4.357 0-7.902 3.545-7.902 7.902 0 4.358 3.545 7.902 7.902 7.902 4.358 0 7.903-3.544 7.903-7.902 0-4.357-3.545-7.902-7.903-7.902zm8.364-2.413a1.881 1.881 0 1 0 0 3.763 1.881 1.881 0 0 0 0-3.763z"
     fill="#FEC63E"
     id="path1668"
     style="fill:#fff3cd;fill-opacity:1" />
</svg>
