<?xml version="1.0" encoding="UTF-8" standalone="no"?>
<svg
   xmlns:dc="http://purl.org/dc/elements/1.1/"
   xmlns:cc="http://creativecommons.org/ns#"
   xmlns:rdf="http://www.w3.org/1999/02/22-rdf-syntax-ns#"
   xmlns:svg="http://www.w3.org/2000/svg"
   xmlns="http://www.w3.org/2000/svg"
   xmlns:sodipodi="http://sodipodi.sourceforge.net/DTD/sodipodi-0.dtd"
   xmlns:inkscape="http://www.inkscape.org/namespaces/inkscape"
   width="32"
   height="32"
   fill="none"
   version="1.1"
   id="svg1680"
   sodipodi:docname="twitter.svg"
   inkscape:version="1.0 (4035a4fb49, 2020-05-01)">
  <metadata
     id="metadata1686">
    <rdf:RDF>
      <cc:Work
         rdf:about="">
        <dc:format>image/svg+xml</dc:format>
        <dc:type
           rdf:resource="http://purl.org/dc/dcmitype/StillImage" />
        <dc:title></dc:title>
      </cc:Work>
    </rdf:RDF>
  </metadata>
  <defs
     id="defs1684" />
  <sodipodi:namedview
     inkscape:document-rotation="0"
     pagecolor="#ffffff"
     bordercolor="#666666"
     borderopacity="1"
     objecttolerance="10"
     gridtolerance="10"
     guidetolerance="10"
     inkscape:pageopacity="0"
     inkscape:pageshadow="2"
     inkscape:window-width="1920"
     inkscape:window-height="1012"
     id="namedview1682"
     showgrid="false"
     inkscape:zoom="24.99858"
     inkscape:cx="16"
     inkscape:cy="16"
     inkscape:window-x="0"
     inkscape:window-y="0"
     inkscape:window-maximized="1"
     inkscape:current-layer="svg1680" />
  <path
     fill-rule="evenodd"
     clip-rule="evenodd"
     d="M31.88 6.16c-1.017.46-2.136.739-3.232.923.52-.088 1.288-1.03 1.595-1.412.468-.581.857-1.245 1.076-1.96.028-.056.05-.126-.006-.169-.07-.027-.116-.013-.172.015a16.517 16.517 0 0 1-3.839 1.47.258.258 0 0 1-.265-.07 3.102 3.102 0 0 0-.335-.344 6.795 6.795 0 0 0-1.86-1.14 6.477 6.477 0 0 0-2.853-.46 6.826 6.826 0 0 0-2.707.765A6.982 6.982 0 0 0 17.1 5.56a6.703 6.703 0 0 0-1.304 2.612c-.224.92-.206 1.828-.07 2.757.022.154.008.175-.131.154C10.319 10.3 5.949 8.412 2.4 4.37c-.154-.176-.238-.176-.364.013-1.553 2.328-.8 6.067 1.14 7.905.259.245.524.49.811.713-.104.022-1.395-.118-2.546-.713-.154-.097-.231-.041-.245.133a3.99 3.99 0 0 0 .042.756c.298 2.36 1.932 4.542 4.17 5.394.266.111.559.21.846.258-.51.112-1.035.192-2.497.078-.182-.036-.252.055-.182.23 1.098 2.995 3.47 3.886 5.246 4.393.238.042.476.042.714.098-.014.021-.028.021-.042.042-.59.898-2.632 1.567-3.583 1.9-1.73.604-3.613.876-5.442.696-.292-.043-.354-.04-.433 0-.08.05-.01.12.084.195.37.245.748.462 1.133.672a17.95 17.95 0 0 0 3.638 1.455c6.537 1.805 13.9.479 18.81-4.398 3.853-3.83 5.204-9.111 5.204-14.4 0-.206.244-.32.39-.43 1.003-.753 1.8-1.655 2.548-2.662.168-.226.158-.427.158-.51V6.16c0-.084.01-.059-.12 0z"
     fill="#FEC63E"
     id="path1678"
     style="fill:#fff3cd;fill-opacity:1" />
</svg>
