<?xml version="1.0" encoding="UTF-8" standalone="no"?>
<svg
   xmlns:dc="http://purl.org/dc/elements/1.1/"
   xmlns:cc="http://creativecommons.org/ns#"
   xmlns:rdf="http://www.w3.org/1999/02/22-rdf-syntax-ns#"
   xmlns:svg="http://www.w3.org/2000/svg"
   xmlns="http://www.w3.org/2000/svg"
   xmlns:sodipodi="http://sodipodi.sourceforge.net/DTD/sodipodi-0.dtd"
   xmlns:inkscape="http://www.inkscape.org/namespaces/inkscape"
   inkscape:version="1.0 (4035a4fb49, 2020-05-01)"
   sodipodi:docname="esporte.svg"
   id="svg937"
   version="1.1"
   fill="none"
   height="140"
   width="200">
  <metadata
     id="metadata943">
    <rdf:RDF>
      <cc:Work
         rdf:about="">
        <dc:format>image/svg+xml</dc:format>
        <dc:type
           rdf:resource="http://purl.org/dc/dcmitype/StillImage" />
        <dc:title></dc:title>
      </cc:Work>
    </rdf:RDF>
  </metadata>
  <defs
     id="defs941" />
  <sodipodi:namedview
     inkscape:current-layer="svg937"
     inkscape:window-maximized="1"
     inkscape:window-y="0"
     inkscape:window-x="0"
     inkscape:cy="70"
     inkscape:cx="100"
     inkscape:zoom="5.8857143"
     showgrid="false"
     id="namedview939"
     inkscape:window-height="1012"
     inkscape:window-width="1920"
     inkscape:pageshadow="2"
     inkscape:pageopacity="0"
     guidetolerance="10"
     gridtolerance="10"
     objecttolerance="10"
     borderopacity="1"
     bordercolor="#666666"
     pagecolor="#ffffff" />
  <path
     style="stroke:#fff3cd;stroke-opacity:1"
     id="path935"
     stroke-linejoin="round"
     stroke-linecap="round"
     stroke-miterlimit="10"
     stroke-width="4"
     stroke="#FEC74B"
     d="M47 79.4l31-45h56l-34 52m0 0H51m49 0L72 20H62h28.5m66.2 59a6.9 6.9 0 1 0 0 13.8 6.9 6.9 0 0 0 0-13.8zm0 0l-22.2-44.6V20H155c3.8 0 6.9 3.2 6.9 7s-3.1 7-6.9 7h-2.5M77.6 85.9c0 18.943-15.357 34.3-34.3 34.3C24.357 120.2 9 104.843 9 85.9c0-18.943 15.357-34.3 34.3-34.3 18.943 0 34.3 15.357 34.3 34.3zm113.4 0c0 18.943-15.357 34.3-34.3 34.3-18.943 0-34.3-15.357-34.3-34.3 0-18.943 15.357-34.3 34.3-34.3 18.943 0 34.3 15.357 34.3 34.3zm-140.8 0a6.9 6.9 0 1 1-13.8 0 6.9 6.9 0 0 1 13.8 0z" />
</svg>
