<?xml version="1.0" encoding="UTF-8" standalone="no"?>
<svg
   xmlns:dc="http://purl.org/dc/elements/1.1/"
   xmlns:cc="http://creativecommons.org/ns#"
   xmlns:rdf="http://www.w3.org/1999/02/22-rdf-syntax-ns#"
   xmlns:svg="http://www.w3.org/2000/svg"
   xmlns="http://www.w3.org/2000/svg"
   xmlns:sodipodi="http://sodipodi.sourceforge.net/DTD/sodipodi-0.dtd"
   xmlns:inkscape="http://www.inkscape.org/namespaces/inkscape"
   inkscape:version="1.0 (4035a4fb49, 2020-05-01)"
   sodipodi:docname="retro.svg"
   id="svg957"
   version="1.1"
   fill="none"
   height="140"
   width="200">
  <metadata
     id="metadata963">
    <rdf:RDF>
      <cc:Work
         rdf:about="">
        <dc:format>image/svg+xml</dc:format>
        <dc:type
           rdf:resource="http://purl.org/dc/dcmitype/StillImage" />
        <dc:title></dc:title>
      </cc:Work>
    </rdf:RDF>
  </metadata>
  <defs
     id="defs961" />
  <sodipodi:namedview
     inkscape:current-layer="svg957"
     inkscape:window-maximized="1"
     inkscape:window-y="0"
     inkscape:window-x="0"
     inkscape:cy="70"
     inkscape:cx="100"
     inkscape:zoom="5.8899836"
     showgrid="false"
     id="namedview959"
     inkscape:window-height="1012"
     inkscape:window-width="1920"
     inkscape:pageshadow="2"
     inkscape:pageopacity="0"
     guidetolerance="10"
     gridtolerance="10"
     objecttolerance="10"
     borderopacity="1"
     bordercolor="#666666"
     pagecolor="#ffffff" />
  <path
     style="stroke:#fff3cd;stroke-opacity:1"
     id="path955"
     stroke-linejoin="round"
     stroke-linecap="round"
     stroke-miterlimit="10"
     stroke-width="4"
     stroke="#FEC74B"
     d="M45.5 95c-9.665 0-17.5 7.835-17.5 17.5S35.835 130 45.5 130 63 122.165 63 112.5 55.165 95 45.5 95zm0 0c10.1-34.1 42.6-59 80-59m0 0C99.819 36 79 56.819 79 82.5S99.819 129 125.5 129 172 108.181 172 82.5 151.181 36 125.5 36zm0 0h.5c10 0 10-16 0-16h-19l12-11M79 50V38H60v29m-8 45.5a6.5 6.5 0 1 1-13 0 6.5 6.5 0 0 1 13 0zm80-30a6.5 6.5 0 1 1-13 0 6.5 6.5 0 0 1 13 0z" />
</svg>
