<svg width="173" height="27" viewBox="0 0 173 27" fill="none" xmlns="http://www.w3.org/2000/svg">
<path d="M28.844 1.232C27.98 1.28 27.344 1.376 26.936 1.52C26.552 1.664 26.288 1.94 26.144 2.348C26 2.756 25.928 3.416 25.928 4.328V22.184C25.928 23.096 26 23.756 26.144 24.164C26.288 24.572 26.552 24.848 26.936 24.992C27.344 25.136 27.98 25.232 28.844 25.28V26C27.74 25.928 26.216 25.892 24.272 25.892C22.208 25.892 20.672 25.928 19.664 26V25.28C20.528 25.232 21.152 25.136 21.536 24.992C21.944 24.848 22.22 24.572 22.364 24.164C22.508 23.756 22.58 23.096 22.58 22.184V2.888L13.904 26.18H13.328L4.256 2.816V21.824C4.256 22.76 4.328 23.456 4.472 23.912C4.64 24.368 4.952 24.704 5.408 24.92C5.864 25.112 6.572 25.232 7.532 25.28V26C6.668 25.928 5.444 25.892 3.86 25.892C2.42 25.892 1.304 25.928 0.512 26V25.28C1.352 25.232 1.976 25.112 2.384 24.92C2.792 24.704 3.068 24.368 3.212 23.912C3.356 23.432 3.428 22.736 3.428 21.824V4.328C3.428 3.416 3.356 2.756 3.212 2.348C3.068 1.94 2.792 1.664 2.384 1.52C2 1.376 1.376 1.28 0.512 1.232V0.512C1.304 0.583999 2.42 0.619998 3.86 0.619998C5.108 0.619998 6.128 0.583999 6.92 0.512L14.84 21.356L22.58 0.619998H24.272C26.216 0.619998 27.74 0.583999 28.844 0.512V1.232ZM42.9687 3.608C45.1767 3.608 47.1087 4.052 48.7647 4.94C50.4447 5.804 51.7407 7.088 52.6527 8.792C53.5647 10.472 54.0207 12.488 54.0207 14.84C54.0207 17.144 53.5407 19.184 52.5807 20.96C51.6447 22.712 50.3367 24.08 48.6567 25.064C46.9767 26.024 45.0687 26.504 42.9327 26.504C40.7247 26.504 38.7807 26.072 37.1007 25.208C35.4447 24.32 34.1607 23.036 33.2487 21.356C32.3367 19.652 31.8807 17.624 31.8807 15.272C31.8807 12.968 32.3487 10.94 33.2847 9.188C34.2447 7.412 35.5647 6.044 37.2447 5.084C38.9247 4.1 40.8327 3.608 42.9687 3.608ZM42.8247 4.256C41.3607 4.256 40.0647 4.724 38.9367 5.66C37.8327 6.572 36.9807 7.856 36.3807 9.512C35.7807 11.144 35.4807 13.016 35.4807 15.128C35.4807 17.264 35.8167 19.148 36.4887 20.78C37.1607 22.412 38.0727 23.672 39.2247 24.56C40.3767 25.424 41.6607 25.856 43.0767 25.856C44.5407 25.856 45.8247 25.4 46.9287 24.488C48.0567 23.552 48.9207 22.268 49.5207 20.636C50.1207 18.98 50.4207 17.096 50.4207 14.984C50.4207 12.848 50.0847 10.964 49.4127 9.332C48.7407 7.7 47.8287 6.452 46.6767 5.588C45.5247 4.7 44.2407 4.256 42.8247 4.256ZM84.7256 4.832C83.8616 4.88 83.2256 4.976 82.8176 5.12C82.4336 5.264 82.1696 5.54 82.0256 5.948C81.8816 6.356 81.8096 7.016 81.8096 7.928V22.184C81.8096 23.096 81.8816 23.756 82.0256 24.164C82.1696 24.572 82.4336 24.848 82.8176 24.992C83.2256 25.136 83.8616 25.232 84.7256 25.28V26C83.6216 25.928 82.0976 25.892 80.1536 25.892C78.0896 25.892 76.5536 25.928 75.5456 26V25.28C76.4096 25.232 77.0336 25.136 77.4176 24.992C77.8256 24.848 78.1016 24.572 78.2456 24.164C78.3896 23.756 78.4616 23.096 78.4616 22.184V6.38L69.7856 26.18H69.2096L60.8576 6.416V21.824C60.8576 22.76 60.9296 23.456 61.0736 23.912C61.2416 24.368 61.5536 24.704 62.0096 24.92C62.4656 25.112 63.1736 25.232 64.1336 25.28V26C63.2696 25.928 62.0456 25.892 60.4616 25.892C59.0216 25.892 57.9056 25.928 57.1136 26V25.28C57.9536 25.232 58.5776 25.112 58.9856 24.92C59.3936 24.704 59.6696 24.368 59.8136 23.912C59.9576 23.432 60.0296 22.736 60.0296 21.824V7.928C60.0296 7.016 59.9576 6.356 59.8136 5.948C59.6696 5.54 59.3936 5.264 58.9856 5.12C58.6016 4.976 57.9776 4.88 57.1136 4.832V4.112C57.9056 4.184 59.0216 4.22 60.4616 4.22C61.6136 4.22 62.6336 4.184 63.5216 4.112L70.7576 21.644L78.4616 4.22H80.1536C82.0976 4.22 83.6216 4.184 84.7256 4.112V4.832ZM105.447 21.752C105.447 23 105.531 24.416 105.699 26C104.139 25.928 101.511 25.892 97.8147 25.892C93.3747 25.892 90.0147 25.928 87.7347 26V25.28C88.5987 25.232 89.2227 25.136 89.6067 24.992C90.0147 24.848 90.2907 24.572 90.4347 24.164C90.5787 23.756 90.6507 23.096 90.6507 22.184V7.928C90.6507 7.016 90.5787 6.356 90.4347 5.948C90.2907 5.54 90.0147 5.264 89.6067 5.12C89.2227 4.976 88.5987 4.88 87.7347 4.832V4.112C90.0147 4.184 93.3747 4.22 97.8147 4.22C101.175 4.22 103.563 4.184 104.979 4.112C104.811 5.552 104.727 6.848 104.727 8C104.727 8.936 104.763 9.68 104.835 10.232H104.007C103.839 8.264 103.419 6.896 102.747 6.128C102.099 5.336 101.031 4.94 99.5427 4.94H96.9147C96.0507 4.94 95.4147 5.012 95.0067 5.156C94.6227 5.276 94.3587 5.54 94.2147 5.948C94.0707 6.356 93.9987 7.016 93.9987 7.928V14.624H96.9867C97.7547 14.624 98.3427 14.432 98.7507 14.048C99.1587 13.64 99.4347 13.208 99.5787 12.752C99.7227 12.272 99.8547 11.672 99.9747 10.952H100.803C100.731 11.768 100.695 12.656 100.695 13.616V14.984C100.695 15.92 100.767 17.264 100.911 19.016H100.083C99.9387 17.864 99.6627 16.964 99.2547 16.316C98.8467 15.668 98.0907 15.344 96.9867 15.344H93.9987V22.184C93.9987 23.096 94.0707 23.756 94.2147 24.164C94.3587 24.572 94.6227 24.848 95.0067 24.992C95.4147 25.112 96.0507 25.172 96.9147 25.172H99.5427C100.743 25.172 101.691 24.98 102.387 24.596C103.083 24.212 103.611 23.6 103.971 22.76C104.331 21.896 104.583 20.696 104.727 19.16H105.555C105.483 19.808 105.447 20.672 105.447 21.752ZM131.033 4.832C130.193 4.88 129.569 5.012 129.161 5.228C128.753 5.42 128.477 5.756 128.333 6.236C128.189 6.692 128.117 7.376 128.117 8.288V26.18H127.289L112.889 6.236V21.824C112.889 22.76 112.961 23.456 113.105 23.912C113.273 24.368 113.585 24.704 114.041 24.92C114.497 25.112 115.205 25.232 116.165 25.28V26C115.301 25.928 114.077 25.892 112.493 25.892C111.053 25.892 109.937 25.928 109.145 26V25.28C109.985 25.232 110.609 25.112 111.017 24.92C111.425 24.704 111.701 24.368 111.845 23.912C111.989 23.432 112.061 22.736 112.061 21.824V7.928C112.061 7.016 111.989 6.356 111.845 5.948C111.701 5.54 111.425 5.264 111.017 5.12C110.633 4.976 110.009 4.88 109.145 4.832V4.112C109.937 4.184 111.053 4.22 112.493 4.22C113.789 4.22 114.893 4.184 115.805 4.112L127.289 20.096V8.288C127.289 7.352 127.205 6.656 127.037 6.2C126.893 5.744 126.593 5.42 126.137 5.228C125.681 5.012 124.973 4.88 124.013 4.832V4.112C124.877 4.184 126.101 4.22 127.685 4.22C129.125 4.22 130.241 4.184 131.033 4.112V4.832ZM153.769 4.112C153.601 5.696 153.517 7.112 153.517 8.36C153.517 9.608 153.553 10.592 153.625 11.312H152.797C152.653 9.632 152.425 8.348 152.113 7.46C151.801 6.572 151.297 5.936 150.601 5.552C149.905 5.144 148.909 4.94 147.613 4.94H145.309V21.824C145.309 22.832 145.405 23.564 145.597 24.02C145.789 24.476 146.125 24.788 146.605 24.956C147.085 25.124 147.865 25.232 148.945 25.28V26C147.697 25.928 145.933 25.892 143.653 25.892C141.253 25.892 139.477 25.928 138.325 26V25.28C139.405 25.232 140.185 25.124 140.665 24.956C141.145 24.788 141.481 24.476 141.673 24.02C141.865 23.564 141.961 22.832 141.961 21.824V4.94H139.657C138.361 4.94 137.365 5.144 136.669 5.552C135.973 5.936 135.469 6.572 135.157 7.46C134.845 8.348 134.617 9.632 134.473 11.312H133.645C133.717 10.544 133.753 9.56 133.753 8.36C133.753 7.112 133.669 5.696 133.501 4.112C135.493 4.184 138.877 4.22 143.653 4.22C148.405 4.22 151.777 4.184 153.769 4.112ZM164.204 3.608C165.26 3.608 166.088 3.728 166.688 3.968C167.312 4.184 167.948 4.508 168.596 4.94C169.124 5.276 169.532 5.444 169.82 5.444C170.036 5.444 170.204 5.324 170.324 5.084C170.444 4.82 170.54 4.412 170.612 3.86H171.44C171.32 5.108 171.26 7.316 171.26 10.484H170.432C170.288 8.756 169.724 7.292 168.74 6.092C167.78 4.892 166.376 4.292 164.528 4.292C163.256 4.292 162.2 4.628 161.36 5.3C160.544 5.972 160.136 6.824 160.136 7.856C160.136 8.6 160.316 9.248 160.676 9.8C161.06 10.352 161.54 10.832 162.116 11.24C162.716 11.624 163.556 12.104 164.636 12.68L165.824 13.328C167.312 14.12 168.5 14.828 169.388 15.452C170.3 16.076 171.032 16.796 171.584 17.612C172.136 18.404 172.412 19.328 172.412 20.384C172.412 22.328 171.704 23.84 170.288 24.92C168.896 25.976 167.144 26.504 165.032 26.504C163.88 26.504 162.932 26.384 162.188 26.144C161.468 25.904 160.772 25.58 160.1 25.172C159.572 24.836 159.164 24.668 158.876 24.668C158.66 24.668 158.492 24.8 158.372 25.064C158.252 25.304 158.156 25.7 158.084 26.252H157.256C157.352 25.076 157.4 22.436 157.4 18.332H158.228C158.396 20.564 158.996 22.364 160.028 23.732C161.06 25.1 162.644 25.784 164.78 25.784C165.98 25.784 167.012 25.448 167.876 24.776C168.764 24.08 169.208 23.06 169.208 21.716C169.208 20.924 168.98 20.228 168.524 19.628C168.068 19.004 167.456 18.452 166.688 17.972C165.92 17.492 164.852 16.892 163.484 16.172C161.516 15.164 160.016 14.156 158.984 13.148C157.952 12.14 157.436 10.832 157.436 9.224C157.436 7.448 158.084 6.068 159.38 5.084C160.7 4.1 162.308 3.608 164.204 3.608Z" fill="#931A25"/>
</svg>
